<mxfile host="www.draw.io" modified="2019-11-22T03:37:52.854Z" agent="Mozilla/5.0 (Macintosh; Intel Mac OS X 10_15_1) AppleWebKit/537.36 (KHTML, like Gecko) Chrome/78.0.3904.108 Safari/537.36" etag="DL930DHcv1LqFuP6U9VF" version="12.2.9" type="github" pages="1">
  <diagram id="Pf_wMo6J8Q2Ppuxr8fCQ" name="Page-1">
    <mxGraphModel dx="946" dy="597" grid="1" gridSize="10" guides="1" tooltips="1" connect="1" arrows="1" fold="1" page="1" pageScale="1" pageWidth="827" pageHeight="1169" math="0" shadow="0">
      <root>
        <mxCell id="0"/>
        <mxCell id="1" parent="0"/>
        <mxCell id="--ZH_GdkUUxW59mJs2Wu-1" value="Recipe" style="swimlane;fontStyle=1;align=center;verticalAlign=top;childLayout=stackLayout;horizontal=1;startSize=26;horizontalStack=0;resizeParent=1;resizeParentMax=0;resizeLast=0;collapsible=1;marginBottom=0;" parent="1" vertex="1">
          <mxGeometry x="70" y="640" width="160" height="120" as="geometry"/>
        </mxCell>
        <mxCell id="--ZH_GdkUUxW59mJs2Wu-2" value="+ recipeId: Integer&#xa;+ image: String&#xa;+ label: String&#xa;+ publishDate: Date&#xa;+ lastUpdateTime: Date&#xa;+ rating: Float" style="text;strokeColor=none;fillColor=none;align=left;verticalAlign=top;spacingLeft=4;spacingRight=4;overflow=hidden;rotatable=0;points=[[0,0.5],[1,0.5]];portConstraint=eastwest;" parent="--ZH_GdkUUxW59mJs2Wu-1" vertex="1">
          <mxGeometry y="26" width="160" height="94" as="geometry"/>
        </mxCell>
        <mxCell id="--ZH_GdkUUxW59mJs2Wu-5" value="User" style="swimlane;fontStyle=1;childLayout=stackLayout;horizontal=1;startSize=26;fillColor=none;horizontalStack=0;resizeParent=1;resizeParentMax=0;resizeLast=0;collapsible=1;marginBottom=0;" parent="1" vertex="1">
          <mxGeometry x="330" y="456" width="140" height="120" as="geometry"/>
        </mxCell>
        <mxCell id="--ZH_GdkUUxW59mJs2Wu-6" value="+ userId: Integer&#xa;+ email: String&#xa;+ fullName: String&#xa;+ password: String" style="text;strokeColor=none;fillColor=none;align=left;verticalAlign=top;spacingLeft=4;spacingRight=4;overflow=hidden;rotatable=0;points=[[0,0.5],[1,0.5]];portConstraint=eastwest;" parent="--ZH_GdkUUxW59mJs2Wu-5" vertex="1">
          <mxGeometry y="26" width="140" height="94" as="geometry"/>
        </mxCell>
        <mxCell id="--ZH_GdkUUxW59mJs2Wu-12" style="edgeStyle=orthogonalEdgeStyle;rounded=0;orthogonalLoop=1;jettySize=auto;html=1;exitX=0.5;exitY=0;exitDx=0;exitDy=0;endArrow=diamond;endFill=1;startSize=6;strokeWidth=1;endSize=10;" parent="1" source="--ZH_GdkUUxW59mJs2Wu-9" target="--ZH_GdkUUxW59mJs2Wu-6" edge="1">
          <mxGeometry relative="1" as="geometry">
            <mxPoint x="400" y="600" as="targetPoint"/>
          </mxGeometry>
        </mxCell>
        <mxCell id="--ZH_GdkUUxW59mJs2Wu-9" value="Review" style="swimlane;fontStyle=1;childLayout=stackLayout;horizontal=1;startSize=26;fillColor=none;horizontalStack=0;resizeParent=1;resizeParentMax=0;resizeLast=0;collapsible=1;marginBottom=0;" parent="1" vertex="1">
          <mxGeometry x="540" y="600" width="140" height="110" as="geometry"/>
        </mxCell>
        <mxCell id="--ZH_GdkUUxW59mJs2Wu-10" value="+ headLine: String&#xa;+ comment: String&#xa;+ rating: Integer&#xa;+ reviewTime: Date" style="text;strokeColor=none;fillColor=none;align=left;verticalAlign=top;spacingLeft=4;spacingRight=4;overflow=hidden;rotatable=0;points=[[0,0.5],[1,0.5]];portConstraint=eastwest;" parent="--ZH_GdkUUxW59mJs2Wu-9" vertex="1">
          <mxGeometry y="26" width="140" height="84" as="geometry"/>
        </mxCell>
        <mxCell id="TSpEsr8HrAn77zz3JYwN-5" style="edgeStyle=orthogonalEdgeStyle;rounded=0;orthogonalLoop=1;jettySize=auto;html=1;endArrow=none;endFill=0;endSize=10;" edge="1" parent="1" source="TSpEsr8HrAn77zz3JYwN-2" target="--ZH_GdkUUxW59mJs2Wu-2">
          <mxGeometry relative="1" as="geometry"/>
        </mxCell>
        <mxCell id="TSpEsr8HrAn77zz3JYwN-6" style="edgeStyle=orthogonalEdgeStyle;rounded=0;orthogonalLoop=1;jettySize=auto;html=1;exitX=0.75;exitY=0;exitDx=0;exitDy=0;entryX=0;entryY=0.5;entryDx=0;entryDy=0;endArrow=diamond;endFill=1;endSize=10;" edge="1" parent="1" source="TSpEsr8HrAn77zz3JYwN-2" target="--ZH_GdkUUxW59mJs2Wu-6">
          <mxGeometry relative="1" as="geometry"/>
        </mxCell>
        <mxCell id="TSpEsr8HrAn77zz3JYwN-2" value="savedDetail" style="swimlane;fontStyle=1;childLayout=stackLayout;horizontal=1;startSize=26;fillColor=none;horizontalStack=0;resizeParent=1;resizeParentMax=0;resizeLast=0;collapsible=1;marginBottom=0;" vertex="1" parent="1">
          <mxGeometry x="260" y="790" width="140" height="60" as="geometry"/>
        </mxCell>
        <mxCell id="TSpEsr8HrAn77zz3JYwN-3" value="+ id: SaveDetailId" style="text;strokeColor=none;fillColor=none;align=left;verticalAlign=top;spacingLeft=4;spacingRight=4;overflow=hidden;rotatable=0;points=[[0,0.5],[1,0.5]];portConstraint=eastwest;" vertex="1" parent="TSpEsr8HrAn77zz3JYwN-2">
          <mxGeometry y="26" width="140" height="34" as="geometry"/>
        </mxCell>
      </root>
    </mxGraphModel>
  </diagram>
</mxfile>
